<svg xmlns="http://www.w3.org/2000/svg" width="368" height="276" viewBox="0 0 368 276">
  <defs>
    <style>
      .a{fill:#ffe9e4}.b{fill:#fff;stroke:#3a36e4;stroke-miterlimit:10;stroke-width:2px}.c{fill:#ffd1c7}
    </style>
  </defs>
  <path class="a" d="M184 73.6c-25.8 0-50.3-39.8-104.5-35.3-57.7 5-77.2 73.8-62.6 126.1 23.8 85 148.6 127 213 76.6 18.7-14.6 42-52.2 43-76.6s60.5 30 79.6-20c21.1-55.2-19.4-137-87-133.5-50.8 2.7-59.6 62.7-81.5 62.7z"/>
  <path class="b" d="M88 30.2h104v84.6H88z"/>
  <path class="b" d="M93.4 35.8h93.1v73.6H93.4z"/>
  <path class="b" d="M104.8 46.4h70.4v52.3h-70.4zM175.2 46.4L192 30.2M175.2 98.7l16.8 16.2M104.8 98.7L88 114.9M104.8 46.4L88 30.2"/>
  <path class="c" d="M110.7 52.3h58.6v40.6h-58.6z"/>
  <path class="b" d="M241 133v111h-92.2V133z"/>
  <path class="b" d="M236 138v101h-82.2V138z"/>
  <path class="b" d="M231 143v91h-72.2v-91z"/>
  <path class="c" d="M218.2 156.8V220h-46.6v-63.2z"/>
  <path class="b" d="M257 133h78.4v78.4H257z"/>
  <path class="b" d="M264.1 140.1h64.3v64.3h-64.3z"/>
  <path class="c" d="M281 157h30.4v30.4H281z"/>
  <path class="b" d="M257 133l7.1 7.1M335.4 133l-7 7.1M335.4 211.4l-7-7M257 211.4l7.1-7M292.7 114.6c-9.2-2.6-21.9-4.3-31 1.5a6.6 6.6 0 01-6.8 0c-8.8-5.3-21.8-3.5-31.1-1.1a6.4 6.4 0 01-7.8-7.8c2.4-9.4 4.2-22.5-1.3-31.3a6.2 6.2 0 010-6.5c5.3-8.7 3.5-22 1.1-31.4a6.4 6.4 0 017.8-7.8c9.5 2.5 22.7 4.3 31.5-1.2a6.2 6.2 0 016.5 0c8.7 5.4 21.9 3.6 31.3 1.2a6.4 6.4 0 017.8 7.8c-2.4 9.5-4.2 22.6 1.3 31.4a6.2 6.2 0 010 6.5c-5.3 8.6-3.7 21.5-1.3 31a6.4 6.4 0 01-8 7.7z"/>
  <path class="b" d="M226.2 40.5h64.3v64.3h-64.3z"/>
  <path class="a" d="M233.7 48h49.2v49.2h-49.2z"/>
  <path class="c" d="M243.8 58.1h29.1v29.1h-29.1z"/>
  <path class="b" d="M36.8 133h95v80.1h-95z"/>
  <path class="a" d="M45.1 141.5h78.5v63.1H45.1z"/>
  <path class="c" d="M58.1 152.9h52.5v40.3H58.1z"/>
</svg>
